<?xml version="1.0" encoding="UTF-8"?>
<svg version="1.1" xmlns="http://www.w3.org/2000/svg" width="1672" height="941">
<path d="M0 0 C551.76 0 1103.52 0 1672 0 C1672 310.53 1672 621.06 1672 941 C1120.24 941 568.48 941 0 941 C0 630.47 0 319.94 0 0 Z " fill="#000000" transform="translate(0,0)"/>
<path d="M0 0 C0.86041397 -0.0049649 1.72082794 -0.00992981 2.60731506 -0.01504517 C5.47454619 -0.02972923 8.34172169 -0.03648517 11.20898438 -0.04199219 C13.20707195 -0.0477461 15.20515952 -0.0535038 17.20324707 -0.05926514 C21.41007749 -0.06979794 25.61688871 -0.07562317 29.82373047 -0.07910156 C35.17044524 -0.084539 40.5168992 -0.1084539 45.86353302 -0.13707352 C50.00242804 -0.15587696 54.14126306 -0.16091519 58.28019714 -0.16243744 C60.24783223 -0.1654335 62.21546705 -0.17335671 64.18305969 -0.18662262 C87.11523991 -0.32997719 107.35840034 2.07633522 125.02148438 18.18457031 C137.05370831 30.63329431 139.37389319 44.47644814 139.14257812 61.12988281 C138.69399146 73.19146613 133.62382608 82.53323107 125.00976562 90.90332031 C121.50154509 94.01657562 117.75978383 96.65178438 113.80273438 99.16113281 C116.71796753 101.47836943 119.66869957 103.17588296 122.99023438 104.84863281 C134.7870871 111.25039156 142.42898986 120.14659975 146.27929688 133.07910156 C150.06871707 148.15194458 147.09876797 163.40437545 139.81445312 176.93457031 C131.39749435 190.43439158 118.98939601 198.78542297 103.80273438 203.16113281 C100.60635843 203.85828891 97.40049139 204.36001065 94.16113281 204.8125 C92.79475237 205.00390123 92.79475237 205.00390123 91.40076828 205.19916916 C81.22665613 206.51433546 71.12317013 206.55908811 60.88085938 206.48925781 C58.87302798 206.48618914 56.86519444 206.48432147 54.85736084 206.48358154 C50.70283535 206.47903444 46.5485098 206.46481048 42.39404297 206.44238281 C37.05986404 206.41373269 31.72583875 206.40312842 26.39159012 206.39870071 C22.27053288 206.39456124 18.14950673 206.38476218 14.02846527 206.37282562 C12.05878699 206.36712453 10.08910576 206.36236529 8.11942291 206.35855865 C5.39173494 206.3517298 2.66417192 206.33812358 -0.06347656 206.32226562 C-0.87780655 206.32114777 -1.69213654 206.32002991 -2.53114319 206.31887817 C-8.08254823 206.2758502 -8.08254823 206.2758502 -9.19726562 205.16113281 C-9.297291 202.53318696 -9.3316698 199.93145499 -9.32424927 197.30297852 C-9.32580926 196.46978498 -9.32736925 195.63659143 -9.32897651 194.7781496 C-9.33299008 191.96438685 -9.3297955 189.1506773 -9.32666016 186.33691406 C-9.32801404 184.32856209 -9.3297939 182.32021038 -9.33197021 180.31185913 C-9.33654609 174.84094514 -9.33475436 169.37004992 -9.33159113 163.89913559 C-9.32906832 158.1873952 -9.33140484 152.47565647 -9.33297729 146.76391602 C-9.33479922 137.17008169 -9.33239207 127.57625504 -9.32763672 117.98242188 C-9.32219406 106.8733105 -9.3239567 95.76421747 -9.32946312 84.65510654 C-9.33399359 75.13582737 -9.33464513 65.61655373 -9.33202446 56.09727383 C-9.33046131 50.40360145 -9.33026892 44.7099377 -9.33356094 39.01626587 C-9.3364387 33.66478232 -9.33446573 28.31332255 -9.32866669 22.96184158 C-9.32733857 20.99171615 -9.32773407 19.02158874 -9.32992935 17.05146408 C-9.33263886 14.37404426 -9.3292622 11.69670191 -9.32424927 9.01928711 C-9.32647999 8.22912862 -9.32871071 7.43897013 -9.33100903 6.62486744 C-9.30269074 -1.10680667 -6.95011893 0.00946761 0 0 Z " fill="#FBFBFB" transform="translate(632.197265625,374.8388671875)"/>
<path d="M0 0 C1.21650742 -0.00852997 2.43301483 -0.01705994 3.68638611 -0.02584839 C5.04217542 -0.02514925 6.39796463 -0.02422613 7.75375366 -0.02310181 C9.17634943 -0.0290842 10.59894194 -0.03588908 12.02153015 -0.04345703 C15.89634664 -0.06117376 19.77107484 -0.06581535 23.64592791 -0.0670886 C26.07194849 -0.06850986 28.49794663 -0.07277943 30.92396164 -0.07808304 C39.4038612 -0.09661614 47.88369781 -0.10475132 56.36361694 -0.10317993 C64.2375879 -0.1019841 72.11128224 -0.12296742 79.98518336 -0.15466726 C86.76165148 -0.18096489 93.5380302 -0.19154131 100.31454885 -0.19026911 C104.35383702 -0.18976255 108.39288059 -0.19527171 112.43211746 -0.21662521 C116.24566952 -0.23623076 120.05874983 -0.23598282 123.87232018 -0.22159195 C125.91128751 -0.21855772 127.950256 -0.23503125 129.989151 -0.25247192 C152.85765226 -0.09972859 174.39767059 9.14815608 190.97787476 24.82992554 C205.20515525 39.8516227 213.26753597 58.88512402 213.78646851 79.64242554 C213.48835633 86.98124596 212.13129851 94.16736877 210.28646851 101.26742554 C210.08666382 102.09629272 209.88685913 102.92515991 209.68099976 103.77914429 C207.4369542 107.78322558 203.91993586 110.20898456 200.34896851 113.01742554 C199.5784314 113.6372229 198.80789429 114.25702026 198.01400757 114.89559937 C196.47477924 116.13313507 194.93235652 117.36670948 193.38656616 118.59603882 C190.75112977 120.69348099 188.14193314 122.82037451 185.53646851 124.95492554 C184.68182007 125.65230835 183.82717163 126.34969116 182.94662476 127.06820679 C180.48158352 129.10611899 178.04292513 131.17080946 175.60995483 133.24667358 C169.88725929 138.12902703 164.07367653 142.86327885 158.13095093 147.47592163 C157.58543579 147.89953979 157.03992065 148.32315796 156.47787476 148.75961304 C155.94694214 149.16792358 155.41600952 149.57623413 154.86898804 149.99691772 C153.77762608 150.87310526 152.71698591 151.78848215 151.68441772 152.73324585 C150.12631226 154.15023804 150.12631226 154.15023804 147.28646851 156.26742554 C142.80630977 155.77949831 140.21444788 152.75573319 137.09896851 149.76742554 C136.52960571 149.2314978 135.96024292 148.69557007 135.37362671 148.1434021 C130.5839248 143.61309465 125.89437648 138.98249416 121.28646851 134.26742554 C122.79580107 130.47713534 124.96848369 128.68064565 128.16146851 126.20492554 C132.96182975 122.3860274 137.51124682 118.3956523 142.00350952 114.22103882 C144.817681 111.60784674 147.66942235 109.06268762 150.59896851 106.57992554 C158.0632594 100.048671 163.46398749 94.13262423 164.66928101 84.07211304 C165.16761444 74.21377765 162.87246969 66.68635429 156.45834351 59.10726929 C150.06517778 52.98698259 141.04620127 49.19061681 132.16091919 49.10920715 C130.94103302 49.09452393 130.94103302 49.09452393 129.69650269 49.07954407 C128.81321289 49.0737886 127.9299231 49.06803314 127.01986694 49.06210327 C126.08294006 49.05220367 125.14601318 49.04230408 124.18069458 49.03210449 C121.08576987 49.00053299 117.99082982 48.97574919 114.89584351 48.95101929 C112.74921267 48.93044601 110.60258586 48.90944944 108.45596313 48.88804626 C102.80729426 48.83286423 97.15858905 48.78343785 91.50985718 48.73519897 C85.74525725 48.68495575 79.98071005 48.6292844 74.21615601 48.57406616 C62.90630522 48.46653188 51.59640864 48.36507636 40.28646851 48.26742554 C40.4396907 49.99341476 40.4396907 49.99341476 40.5960083 51.75427246 C41.84470031 66.28345747 42.66688377 80.81824751 43.16146851 95.39242554 C43.2200919 97.11494789 43.2200919 97.11494789 43.2798996 98.87226868 C44.78896554 149.14683436 44.78896554 149.14683436 27.07495117 168.56738281 C24.01684654 171.74583759 20.77457524 174.66674236 17.41146851 177.51742554 C16.86547752 177.98188332 16.31948654 178.44634109 15.75695038 178.92487335 C-2.50242465 194.26742554 -2.50242465 194.26742554 -7.71353149 194.26742554 C-7.76019478 169.26828499 -7.79549245 144.26915094 -7.81715584 119.26997566 C-7.82748063 107.66315381 -7.84156386 96.05635896 -7.8644104 84.44955444 C-7.88430754 74.33634609 -7.89723917 64.2231573 -7.90170848 54.10992992 C-7.90432211 48.75209627 -7.91049009 43.39431859 -7.92499161 38.03650284 C-7.93851752 32.99855362 -7.9427643 27.96068369 -7.93974686 22.92271805 C-7.94029927 21.06911285 -7.94430631 19.21550514 -7.95194244 17.36191559 C-7.96182572 14.84017711 -7.95952481 12.3187419 -7.95404053 9.79699707 C-7.95986621 9.05576068 -7.96569189 8.31452429 -7.97169411 7.55082619 C-7.93267626 0.95857691 -6.3651632 0.02009984 0 0 Z " fill="#FBFBFB" transform="translate(249.71353149414063,308.7325744628906)"/>
<path d="M0 0 C14.32400377 10.64080192 25.61883934 26.94676958 28.63671875 44.7578125 C30.14008573 59.51781971 29.76916042 73.89713617 25 88 C24.66097656 89.051875 24.32195312 90.10375 23.97265625 91.1875 C20.8714832 99.66330392 15.77269857 106.19352181 10 113 C9.42378906 113.6909375 8.84757813 114.381875 8.25390625 115.09375 C-2.45915171 126.84872631 -19.85500536 134.0357098 -35.57592773 135.18896484 C-38.17919879 135.26654168 -40.77076723 135.27842733 -43.375 135.25 C-44.29619629 135.24178223 -45.21739258 135.23356445 -46.16650391 135.22509766 C-66.16179791 134.89742147 -82.91809561 128.28367922 -97.75 114.8125 C-111.18190415 100.31404267 -118.42390578 81.12236871 -118.25 61.5 C-118.25773438 60.62730469 -118.26546875 59.75460937 -118.2734375 58.85546875 C-118.21626747 39.56058458 -110.44394206 21.66125496 -97.3125 7.6875 C-70.90134145 -17.17006099 -30.01114539 -20.67693744 0 0 Z " fill="#FAFAFA" transform="translate(908,448)"/>
<path d="M0 0 C0.19606458 5.06782568 -0.38478102 9.098171 -1.8984375 13.9296875 C-2.09345856 14.56431915 -2.28847961 15.19895081 -2.4894104 15.85281372 C-3.10875689 17.86319655 -3.74107148 19.86917275 -4.375 21.875 C-7.8363195 32.893767 -7.8363195 32.893767 -10.55224609 44.11328125 C-11.25416636 47.07099107 -12.41096064 49.78298884 -13.625 52.5625 C-14.07101562 53.59503906 -14.51703125 54.62757813 -14.9765625 55.69140625 C-15.31429688 56.45324219 -15.65203125 57.21507812 -16 58 C-19.88701516 56.70432828 -20.81212435 54.92196949 -23.1875 51.625 C-23.90292969 50.64789063 -24.61835938 49.67078125 -25.35546875 48.6640625 C-27 46 -27 46 -27 43 C-34.85495742 49.34808804 -42.55148963 55.85982179 -50.20166016 62.45166016 C-53.1300217 64.97292935 -56.06529349 67.48612243 -59 70 C-60.16670115 70.99995977 -61.33336779 71.99995981 -62.5 73 C-64.83333333 75 -67.16666667 77 -69.5 79 C-70.0777417 79.4952417 -70.6554834 79.9904834 -71.25073242 80.50073242 C-72.41481977 81.49845195 -73.57904456 82.49601114 -74.7434082 83.4934082 C-77.70069887 86.02698743 -80.65538369 88.56350137 -83.60546875 91.10546875 C-88.93835322 95.69606553 -94.28185945 100.25761398 -99.75 104.6875 C-104.12939404 108.24095569 -108.31395765 111.962648 -112.48046875 115.76171875 C-115.90742134 118.8061278 -119.48323062 121.64932008 -123.0625 124.51171875 C-125.26550255 126.37782597 -127.32087629 128.25100457 -129.375 130.26953125 C-129.94694092 130.82535889 -130.51888184 131.38118652 -131.1081543 131.95385742 C-132.22329953 133.04727801 -133.32449555 134.15515531 -134.40942383 135.27856445 C-136.99428745 137.80144681 -138.41438778 138.97624893 -142.08203125 139.125 C-145.60277645 137.76760426 -147.32333489 136.14418411 -149.875 133.375 C-152.790194 130.30797298 -155.66010081 127.31525743 -158.875 124.5625 C-162.27241389 121.65140947 -165.58400649 118.6552643 -168.875 115.625 C-173.37912605 111.48111944 -177.91002337 107.36947902 -182.46484375 103.28125 C-186.99349429 99.2061623 -191.4956287 95.10188945 -196 91 C-200.07710409 92.62013003 -202.80913562 95.537381 -205.83203125 98.6015625 C-206.38686691 99.15685638 -206.94170258 99.71215027 -207.51335144 100.28427124 C-208.68648789 101.46042442 -209.85719729 102.63900276 -211.02563477 103.81982422 C-212.79075734 105.60303454 -214.56358023 107.37828024 -216.33789062 109.15234375 C-223.12189284 115.9336617 -223.12189284 115.9336617 -229.54296875 123.0546875 C-235.0077469 129.46050466 -241.18879825 135.24157309 -247.17529297 141.15478516 C-252.64451553 146.56304249 -258.0521356 151.95363851 -263.04638672 157.81054688 C-267.34424303 162.62723962 -271.96290483 167.14883817 -276.52661133 171.71191406 C-278.33118167 173.51870466 -280.1275612 175.33339596 -281.92382812 177.1484375 C-283.0698243 178.29736216 -284.21629122 179.44581752 -285.36328125 180.59375 C-285.89971756 181.13737183 -286.43615387 181.68099365 -286.98884583 182.24108887 C-290.77113346 186 -290.77113346 186 -293 186 C-293.20362142 178.47483806 -293.3432638 170.95039163 -293.43945312 163.4230957 C-293.47956923 160.86520847 -293.5340774 158.30750336 -293.60351562 155.75024414 C-293.70108251 152.06350703 -293.74604804 148.37920327 -293.78125 144.69140625 C-293.82254028 143.55667374 -293.86383057 142.42194122 -293.90637207 141.25282288 C-293.90983209 135.06604236 -293.26601444 131.58414797 -289.10571289 126.86499023 C-287.76215806 125.55059255 -286.39631043 124.25821224 -285 123 C-284.18402344 122.1646875 -283.36804688 121.329375 -282.52734375 120.46875 C-281.69332031 119.6540625 -280.85929688 118.839375 -280 118 C-278.66643669 116.65777043 -277.33458003 115.31384427 -276.00390625 113.96875 C-274.52349431 112.4791102 -273.04302418 110.98952824 -271.5625 109.5 C-270.45551758 108.38044922 -270.45551758 108.38044922 -269.32617188 107.23828125 C-263.2005593 101.08544373 -263.2005593 101.08544373 -259.90234375 98.46875 C-257.61871614 96.52628345 -255.89010137 94.78001765 -253.98144531 92.5168457 C-249.36540854 87.18819505 -244.383063 82.23842014 -239.39453125 77.26171875 C-238.38264147 76.24915366 -237.37090003 75.2364403 -236.35929871 74.22358704 C-234.25392706 72.11675182 -232.1467846 70.01170881 -230.03833008 67.90795898 C-227.34168844 65.21704335 -224.6496017 62.52162232 -221.95880604 59.82486248 C-219.87680244 57.73924195 -217.79241893 55.65601305 -215.70731163 53.57349586 C-214.71345411 52.58030295 -213.72033205 51.58637349 -212.72797585 50.59168053 C-211.34296626 49.20412258 -209.95439322 47.82012432 -208.56567383 46.4362793 C-207.77848465 45.64988571 -206.99129547 44.86349213 -206.18025208 44.05326843 C-201.14228471 39.3087256 -201.14228471 39.3087256 -197.6875 38.375 C-193.98004612 39.23719858 -192.42828628 41.26399012 -189.8828125 44.0078125 C-188.034841 45.96313504 -186.11034828 47.69482127 -184.0625 49.4375 C-181.25423653 51.85617779 -178.60029407 54.35899683 -176 57 C-173.56099918 59.47659621 -171.09257578 61.82030857 -168.4375 64.0625 C-163.53249379 68.26817859 -159.06567466 72.90897908 -154.52294922 77.49658203 C-150.17364134 81.87225601 -145.73450273 86.03847731 -141 90 C-137.57326304 88.47260916 -134.94158718 86.45668829 -132.0625 84.0625 C-130.61037109 82.85787109 -130.61037109 82.85787109 -129.12890625 81.62890625 C-125.35088255 78.46166504 -121.59003573 75.27411432 -117.83154297 72.08374023 C-111.37099783 66.60532751 -104.80020072 61.26483236 -98.21484375 55.9375 C-91.279771 50.32283565 -84.38488884 44.67258336 -77.58911133 38.88989258 C-69.19867831 31.75547323 -60.61595574 24.85912312 -52 18 C-52.53184078 14.6052716 -52.83978219 13.18849155 -55.125 10.5 C-55.74375 9.675 -56.3625 8.85 -57 8 C-56.6171875 5.34375 -56.6171875 5.34375 -56 3 C-55.44538086 2.97494385 -54.89076172 2.9498877 -54.31933594 2.92407227 C-51.79601157 2.80772073 -49.27302464 2.68517246 -46.75 2.5625 C-45.87730469 2.52318359 -45.00460937 2.48386719 -44.10546875 2.44335938 C-43.26113281 2.40146484 -42.41679687 2.35957031 -41.546875 2.31640625 C-40.77182617 2.27974854 -39.99677734 2.24309082 -39.19824219 2.20532227 C-37.02453601 2.06104898 -37.02453601 2.06104898 -35.06445312 1.5 C-32.49582226 0.87789073 -30.06274723 0.78283366 -27.421875 0.68359375 C-26.34292969 0.64169922 -25.26398438 0.59980469 -24.15234375 0.55664062 C-22.46818359 0.49766602 -22.46818359 0.49766602 -20.75 0.4375 C-19.64269531 0.39431641 -18.53539062 0.35113281 -17.39453125 0.30664062 C-11.59207891 0.08930739 -5.80636785 -0.04956655 0 0 Z " fill="#03CF6C" transform="translate(535,402)"/>
<path d="M0 0 C15.60421846 11.95617342 24.92231657 29.10846473 27.84375 48.47265625 C28.51193844 56.21180086 28.7924526 64.29564094 28.15234375 72.046875 C26.18806008 74.01115867 23.16937212 73.16711417 20.55487061 73.17129517 C19.60469055 73.16769989 18.6545105 73.16410461 17.67553711 73.16040039 C16.18302177 73.16061943 16.18302177 73.16061943 14.66035461 73.1608429 C11.35427713 73.16014331 8.04825521 73.15234879 4.7421875 73.14453125 C2.45675182 73.14266723 0.17131574 73.14124325 -2.11412048 73.14024353 C-8.14264012 73.13641707 -14.17113584 73.1265857 -20.199646 73.11553955 C-26.34598466 73.10532817 -32.49232718 73.1007465 -38.63867188 73.09570312 C-50.70834387 73.08496354 -62.77799807 73.0678856 -74.84765625 73.046875 C-74.07903815 75.1233699 -73.30281801 77.19705185 -72.5234375 79.26953125 C-72.09200439 80.42461182 -71.66057129 81.57969238 -71.21606445 82.76977539 C-67.34343193 92.04405662 -60.18137733 98.61455889 -50.90209961 102.43383789 C-42.19269159 105.03268798 -29.63154069 104.70881016 -21.53515625 100.609375 C-17.08155322 97.67788946 -13.9918701 93.85448877 -10.6015625 89.79296875 C-8.84765625 88.046875 -8.84765625 88.046875 -5.97265625 87.671875 C-2.48190972 89.20780347 0.90911269 90.87132145 4.28125 92.65234375 C8.5405036 94.72112407 12.98691137 96.21219345 17.46484375 97.73828125 C20.15234375 99.046875 20.15234375 99.046875 21.70703125 100.87109375 C22.15234375 103.046875 22.15234375 103.046875 21.09765625 105.5625 C9.91358351 122.36260927 -5.08514573 131.90979182 -24.84765625 136.046875 C-45.67863541 137.47217322 -67.29632928 136.36181624 -84.140625 122.4296875 C-87.18532914 119.76737843 -90.0242006 116.94197056 -92.84765625 114.046875 C-93.86472656 113.04333984 -93.86472656 113.04333984 -94.90234375 112.01953125 C-109.72174462 96.44269433 -112.39499993 76.35645726 -112.12109375 55.89453125 C-111.55270099 38.47413735 -104.46514506 22.92517655 -92.84765625 10.046875 C-92.244375 9.35078125 -91.64109375 8.6546875 -91.01953125 7.9375 C-68.06882992 -16.94183169 -27.05896308 -18.55895959 0 0 Z " fill="#FAFAFA" transform="translate(1436.84765625,446.953125)"/>
<path d="M0 0 C4.51088573 22.04426897 6.65246409 48.70449572 -2 70 C-2.3609375 70.93199219 -2.721875 71.86398437 -3.09375 72.82421875 C-9.55700333 89.00306764 -18.9042124 102.47755322 -31 115 C-31.63808594 115.66386719 -32.27617187 116.32773437 -32.93359375 117.01171875 C-44.91841692 128.52929736 -60.36497564 135.66550302 -76 140.625 C-76.9590625 140.93695312 -77.918125 141.24890625 -78.90625 141.5703125 C-79.8446875 141.869375 -80.783125 142.1684375 -81.75 142.4765625 C-82.59046875 142.74549316 -83.4309375 143.01442383 -84.296875 143.29150391 C-89.84117822 144.7446802 -95.3031517 145.12568693 -101.01643372 145.13371277 C-101.68662259 145.13597833 -102.35681147 145.13824388 -103.0473091 145.14057809 C-105.27350072 145.14686452 -107.49963062 145.14609223 -109.72583008 145.14526367 C-111.32950926 145.14825829 -112.93318771 145.15166151 -114.53686523 145.15544128 C-118.87735954 145.16424911 -123.21783412 145.16661788 -127.5583365 145.16725707 C-130.26953667 145.16796875 -132.98073184 145.17010518 -135.69193077 145.17275429 C-145.14773247 145.18199304 -154.6035201 145.18609052 -164.05932617 145.18530273 C-172.88050804 145.1847005 -181.70162905 145.19528458 -190.5227955 145.2110464 C-198.09658116 145.22409844 -205.67034684 145.2294877 -213.24414366 145.22884732 C-217.76797136 145.22859189 -222.29174479 145.23146874 -226.81556129 145.24202538 C-231.06320953 145.25166849 -235.31075114 145.25181179 -239.55840302 145.24450874 C-241.12013847 145.24345856 -242.68188045 145.24585132 -244.24360466 145.2518692 C-246.3686921 145.25953041 -248.49340573 145.2549841 -250.6184845 145.24723816 C-251.80956723 145.24778293 -253.00064997 145.24832769 -254.22782612 145.24888897 C-257 145 -257 145 -259 143 C-257.11003123 128.43764835 -241.77669971 112.90052394 -230.69482613 104.08853149 C-206.32236608 86.14727138 -165.89678288 92.63740933 -136.90795898 93.6105957 C-136.24529258 93.63259918 -135.58262618 93.65460266 -134.89987898 93.67727292 C-127.93035813 93.91243154 -120.97016995 94.20351685 -114.00912476 94.62129211 C-94.56743121 95.69099183 -79.83123146 93.04963463 -64.375 80.375 C-53.74495944 70.45863708 -47.31299406 57.3739066 -46.5625 42.875 C-45.80022342 36.49182414 -43.54010232 33.78443675 -38.75 29.875 C-36.83866399 28.38148978 -34.90758529 26.92219378 -32.95654297 25.48095703 C-29.77835461 23.0753056 -26.81039971 20.43659988 -23.8125 17.8125 C-17.9567853 12.77521177 -12.03704802 7.81940613 -6 3 C-5.28070313 2.42378906 -4.56140625 1.84757812 -3.8203125 1.25390625 C-2 0 -2 0 0 0 Z " fill="#1886FA" transform="translate(501,479)"/>
<path d="M0 0 C0.77915771 0.00202423 1.55831543 0.00404846 2.36108398 0.00613403 C3.15635498 0.00517731 3.95162598 0.00422058 4.77099609 0.00323486 C6.45564859 0.0025531 8.1403037 0.00440711 9.82495117 0.00857544 C12.41257595 0.01392378 15.00002714 0.00863034 17.58764648 0.00222778 C19.22045937 0.00288857 20.85327215 0.00416973 22.48608398 0.00613403 C23.2652417 0.0041098 24.04439941 0.00208557 24.84716797 0 C30.30863294 0.02399549 30.30863294 0.02399549 31.42358398 1.13894653 C31.52749365 3.81939332 31.56719724 6.47491174 31.56542969 9.15603638 C31.56890411 9.99682739 31.57237854 10.83761841 31.57595825 11.70388794 C31.58333169 13.53781848 31.58866856 15.37175805 31.59224892 17.20569992 C31.59940413 20.11570224 31.61506749 23.02553492 31.6335907 25.93548584 C31.68607657 34.21242824 31.73395691 42.48928306 31.74951172 50.76638794 C31.75964282 55.82519322 31.78910698 60.88357962 31.83083153 65.94221878 C31.84308448 67.8645268 31.84827329 69.78689419 31.8460331 71.70923996 C31.83595703 83.18784501 31.92406228 93.17194519 38.36108398 103.13894653 C44.36458136 108.96051975 50.38927408 109.52899477 58.49365234 109.59207153 C66.19192288 109.398895 71.70489985 106.56978274 77.29077148 101.41629028 C86.39093178 90.75416218 86.01464057 76.36613844 85.99780273 63.18582153 C86.01027215 61.39074353 86.02461302 59.59567766 86.04072571 57.80062866 C86.07844689 53.11908378 86.093891 48.43774976 86.10351562 43.756073 C86.12340317 36.22206131 86.1799864 28.68820745 86.23227882 21.15436554 C86.24764249 18.52573751 86.25481455 15.8971892 86.26042175 13.26852417 C86.26743162 11.67292235 86.27453202 10.07732092 86.28173828 8.48171997 C86.28120956 7.74832901 86.28068085 7.01493805 86.28013611 6.25932312 C86.31035522 1.25217529 86.31035522 1.25217529 87.42358398 0.13894653 C90.00547845 0.03803178 92.56004899 -0.00076845 95.14233398 0.00613403 C95.91540894 0.00517731 96.68848389 0.00422058 97.48498535 0.00323486 C99.12255942 0.00255313 100.76013617 0.00440697 102.39770508 0.00857544 C104.91290319 0.01392382 107.42792272 0.00863027 109.94311523 0.00222778 C111.53035521 0.00288857 113.11759508 0.00416973 114.70483398 0.00613403 C115.46211792 0.0041098 116.21940186 0.00208557 116.99963379 0 C122.30863267 0.02399522 122.30863267 0.02399522 123.42358398 1.13894653 C123.52220436 2.95891159 123.54990532 4.7827422 123.55056763 6.6053772 C123.55338745 7.79170242 123.55620728 8.97802765 123.55911255 10.20030212 C123.5560762 12.17023384 123.5560762 12.17023384 123.55297852 14.17996216 C123.55433253 15.56763251 123.55611247 16.9553025 123.55828857 18.3429718 C123.56286287 22.12179374 123.56107337 25.9005885 123.55790949 29.67941093 C123.55538586 33.62543692 123.55772343 37.5714605 123.55929565 41.51748657 C123.56111734 48.14537984 123.55871106 54.77326198 123.55395508 61.40115356 C123.54851246 69.07477857 123.55027512 76.748377 123.55578148 84.42200136 C123.56031263 90.99863046 123.56096315 97.57525154 123.55834281 104.15188169 C123.55678005 108.08497777 123.55658626 112.01806134 123.5598793 115.95115662 C123.56275805 119.64796002 123.56078227 123.34472903 123.55498505 127.0415287 C123.55302182 129.05354896 123.55601133 131.06557212 123.55911255 133.07759094 C123.55629272 134.26391617 123.5534729 135.45024139 123.55056763 136.67251587 C123.55000209 138.22885868 123.55000209 138.22885868 123.54942513 139.81664276 C123.42358398 142.13894653 123.42358398 142.13894653 122.42358398 143.13894653 C119.84168952 143.23986129 117.28711898 143.27866152 114.70483398 143.27175903 C113.54522156 143.27319412 113.54522156 143.27319412 112.36218262 143.2746582 C110.72460855 143.27533994 109.08703179 143.2734861 107.44946289 143.26931763 C104.93426478 143.26396925 102.41924525 143.2692628 99.90405273 143.27566528 C98.31681275 143.2750045 96.72957289 143.27372334 95.14233398 143.27175903 C94.38505005 143.27378326 93.62776611 143.2758075 92.84753418 143.27789307 C87.5385353 143.25389785 87.5385353 143.25389785 86.42358398 142.13894653 C86.18657159 139.28016744 86.00139217 136.44011356 85.86108398 133.57644653 C85.81790039 132.77013794 85.7747168 131.96382935 85.73022461 131.13308716 C85.62383137 129.13525849 85.52317511 127.13712584 85.42358398 125.13894653 C84.60567383 126.11734497 84.60567383 126.11734497 83.77124023 127.11550903 C75.32545218 136.90396083 66.13769679 144.20449462 52.81469727 145.3664856 C42.03745539 145.94608359 31.12186424 146.48799802 21.42358398 141.13894653 C20.57022461 140.71484497 19.71686523 140.29074341 18.83764648 139.85379028 C8.26216366 134.15319218 -0.12860137 123.90587372 -3.90275574 112.44981384 C-7.39488547 100.47070701 -6.85213574 88.13037684 -6.80688477 75.78347778 C-6.80569095 73.62826058 -6.80524023 71.47304284 -6.80549622 69.31782532 C-6.8039403 64.82709442 -6.7957133 60.33644426 -6.78222656 55.84573364 C-6.76512496 50.07747419 -6.7614159 44.30930224 -6.76217175 38.54102039 C-6.76190072 34.10341043 -6.75643225 29.66581975 -6.7491703 25.22821617 C-6.74598152 23.09944492 -6.74401574 20.97067148 -6.7432766 18.84189796 C-6.74112162 15.88333982 -6.73239914 12.92487696 -6.72167969 9.96633911 C-6.72213287 9.08176529 -6.72258606 8.19719147 -6.72305298 7.28581238 C-6.68437715 0.02936847 -6.68437715 0.02936847 0 0 Z " fill="#F9F9F9" transform="translate(958.576416015625,437.8610534667969)"/>
<path d="M0 0 C7.59824187 6.37933351 14.15559485 13.88254478 15.35546875 24 C10.47074972 26.22752234 5.58555647 28.37767914 0.53515625 30.203125 C-1.13551494 30.81390802 -2.7950966 31.45509827 -4.44921875 32.109375 C-5.42117188 32.48578125 -6.393125 32.8621875 -7.39453125 33.25 C-8.296875 33.60578125 -9.19921875 33.9615625 -10.12890625 34.328125 C-12.86846776 35.05980913 -14.09379058 35.22874389 -16.64453125 34 C-17.8828125 32.109375 -17.8828125 32.109375 -18.95703125 29.75 C-21.61373458 24.60058737 -24.78348451 21.32066304 -30.4375 19.38671875 C-39.82626506 17.7416077 -48.73771573 19.03106149 -57.64453125 22 C-60.16963448 25.45540442 -60.00850464 28.85070338 -59.64453125 33 C-57.91248113 37.65488471 -55.1835588 38.98927907 -50.9453125 41.03442383 C-47.11672108 42.64118095 -43.18225989 43.57164594 -39.14453125 44.5 C-38.27231934 44.71084229 -37.40010742 44.92168457 -36.50146484 45.13891602 C-32.43337671 46.12088112 -28.35759546 47.06618909 -24.27734375 47.99609375 C-8.84754531 51.57120064 5.11485741 56.42925022 14.35546875 70.0625 C19.89744819 79.04784166 19.69165151 91.87197616 18.35546875 102 C15.83042248 111.81589352 9.15990436 120.77112762 0.58300781 126.1015625 C-12.03832607 133.37552016 -24.2701278 136.57060156 -38.89453125 136.4375 C-40.0767627 136.42920166 -41.25899414 136.42090332 -42.47705078 136.41235352 C-59.90033832 136.07715265 -75.6349672 131.49311645 -88.640625 119.25390625 C-92.23571301 115.21030823 -94.92767553 110.65854209 -97.64453125 106 C-98.30453125 105.01 -98.96453125 104.02 -99.64453125 103 C-99.72358189 100.66800612 -99.73251894 98.33167378 -99.64453125 96 C-89.68582097 91.77373017 -79.50107263 87.85149344 -68.64453125 87 C-68.30421875 87.65226563 -67.96390625 88.30453125 -67.61328125 88.9765625 C-63.65301576 96.11767953 -59.57717803 100.90254023 -51.98046875 104.1328125 C-47.68645332 105.24905539 -43.68835094 105.36805217 -39.26953125 105.375 C-38.05136719 105.41173828 -38.05136719 105.41173828 -36.80859375 105.44921875 C-30.00636531 105.48192177 -24.59940783 103.91962955 -19.6796875 99.05859375 C-17.70584316 95.13325049 -17.84210764 91.25422863 -18.64453125 87 C-24.91093066 78.76416078 -38.8578146 77.64228329 -48.38989258 75.515625 C-64.78441849 71.83842921 -81.33414428 67.86863972 -91.45703125 53.25 C-97.33058614 42.95143585 -98.15359775 31.7308027 -95.08203125 20.4375 C-90.7237155 7.59113573 -82.58469073 0.00990218 -70.83203125 -6.25 C-48.77677171 -16.57373851 -19.65710305 -14.8662286 0 0 Z " fill="#FAFAFA" transform="translate(1296.64453125,447)"/>
<path d="M0 0 C0 12.54 0 25.08 0 38 C-11.375 37.6875 -11.375 37.6875 -14.89599609 37.54956055 C-23.2039907 37.44030048 -29.56457181 39.26226123 -35.98510742 44.67285156 C-46.25001626 55.28746672 -46.73308809 67.77515697 -46.671875 81.63671875 C-46.68247252 83.41080712 -46.69539124 85.184883 -46.71051025 86.9589386 C-46.74447616 91.58961308 -46.75009927 96.21986495 -46.74859619 100.85064697 C-46.75184296 107.41180769 -46.79445891 113.97285524 -46.83233643 120.53388977 C-46.85236441 124.02172858 -46.86168484 127.50934422 -46.86248779 130.99723816 C-46.86630519 132.57587694 -46.87014893 134.15451566 -46.87402344 135.7331543 C-46.87192368 136.45876556 -46.86982391 137.18437683 -46.86766052 137.93197632 C-46.88698562 142.88698562 -46.88698562 142.88698562 -48 144 C-50.65456193 144.10095564 -53.28255176 144.13970998 -55.9375 144.1328125 C-57.13040649 144.13424759 -57.13040649 144.13424759 -58.34741211 144.13571167 C-60.0320646 144.13639343 -61.71671971 144.13453943 -63.40136719 144.13037109 C-65.98899197 144.12502275 -68.57644316 144.13031619 -71.1640625 144.13671875 C-72.79687539 144.13605797 -74.42968816 144.1347768 -76.0625 144.1328125 C-76.84165771 144.13483673 -77.62081543 144.13686096 -78.42358398 144.13894653 C-83.88504895 144.11495105 -83.88504895 144.11495105 -85 143 C-85.09862038 141.18003494 -85.12632134 139.35620434 -85.12698364 137.53356934 C-85.12980347 136.34724411 -85.13262329 135.16091888 -85.13552856 133.93864441 C-85.13350433 132.6253566 -85.1314801 131.31206879 -85.12939453 129.95898438 C-85.13074855 128.57131403 -85.13252848 127.18364404 -85.13470459 125.79597473 C-85.13927888 122.01715279 -85.13748938 118.23835804 -85.1343255 114.4595356 C-85.13180188 110.51350962 -85.13413945 106.56748603 -85.13571167 102.62145996 C-85.13753336 95.99356669 -85.13512708 89.36568455 -85.13037109 82.73779297 C-85.12492847 75.06416797 -85.12669113 67.39056953 -85.1321975 59.71694517 C-85.13672865 53.14031607 -85.13737917 46.56369499 -85.13475883 39.98706484 C-85.13319607 36.05396877 -85.13300227 32.1208852 -85.13629532 28.18778992 C-85.13917406 24.49098651 -85.13719829 20.7942175 -85.13140106 17.09741783 C-85.12943784 15.08539757 -85.13242735 13.07337442 -85.13552856 11.06135559 C-85.13270874 9.87503036 -85.12988892 8.68870514 -85.12698364 7.46643066 C-85.1264181 5.91008785 -85.1264181 5.91008785 -85.12584114 4.32230377 C-85 2 -85 2 -84 1 C-81.41810554 0.89908525 -78.863535 0.86028501 -76.28125 0.8671875 C-75.50817505 0.86623077 -74.7351001 0.86527405 -73.93859863 0.86428833 C-72.30102456 0.86360659 -70.66344781 0.86546043 -69.02587891 0.86962891 C-66.51068079 0.87497729 -63.99566127 0.86968374 -61.48046875 0.86328125 C-59.89322877 0.86394203 -58.3059889 0.8652232 -56.71875 0.8671875 C-55.5828241 0.86415115 -55.5828241 0.86415115 -54.4239502 0.86105347 C-49.11495132 0.88504868 -49.11495132 0.88504868 -48 2 C-47.84344973 3.48638992 -47.74933057 4.97949127 -47.68359375 6.47265625 C-47.64169922 7.37177734 -47.59980469 8.27089844 -47.55664062 9.19726562 C-47.51732422 10.14279297 -47.47800781 11.08832031 -47.4375 12.0625 C-47.39431641 13.01189453 -47.35113281 13.96128906 -47.30664062 14.93945312 C-47.20020724 17.29281353 -47.09818992 19.64628354 -47 22 C-46.67128906 21.3709375 -46.34257813 20.741875 -46.00390625 20.09375 C-39.98183731 9.2572899 -32.15630279 3.13703953 -20.75 -1.25 C-13.41162166 -2.71767567 -6.97032841 -2.78813136 0 0 Z " fill="#F8F8F8" transform="translate(1191,437)"/>
<path d="M0 0 C7.47179438 5.43966457 12.23238213 12.71521108 14.35546875 21.71484375 C15.81128606 34.72259771 15.22084867 46.95791485 7.60546875 57.96484375 C1.32613063 65.62909855 -4.95064224 70.67975911 -14.9909668 72.03051758 C-26.36081791 72.77520541 -34.98540467 72.08302495 -44.0625 64.765625 C-49.82375315 59.53068535 -53.05719493 54.00939278 -55.64453125 46.71484375 C-55.88945313 46.02519531 -56.134375 45.33554687 -56.38671875 44.625 C-59.85191078 33.01898013 -57.6186077 20.4398697 -51.98828125 9.96484375 C-47.19853054 1.94479605 -40.16907774 -4.19787382 -31.12890625 -6.81640625 C-19.42050206 -9.02553912 -9.87525373 -6.2619826 0 0 Z " fill="#030303" transform="translate(884.64453125,476.28515625)"/>
<path d="M0 0 C8.1675 -0.061875 16.335 -0.12375 24.75 -0.1875 C28.57996582 -0.22846802 28.57996582 -0.22846802 32.48730469 -0.27026367 C34.54882334 -0.27903912 36.61034726 -0.28668054 38.671875 -0.29296875 C39.71166504 -0.30831665 40.75145508 -0.32366455 41.82275391 -0.33947754 C52.80110075 -0.34332689 62.83588361 1.21056528 71 9 C76.67942312 15.12779863 77.45444193 20.62013 77.31640625 28.7734375 C76.87469561 33.2777954 75.54469257 36.31400013 73 40 C72.34 41.051875 71.68 42.10375 71 43.1875 C66.62981729 48.21733293 59.12843494 49.95718835 53 52 C51.26654193 52.0878506 49.52986731 52.11764814 47.79418945 52.11352539 C46.20287956 52.11341209 46.20287956 52.11341209 44.579422 52.11329651 C43.43559555 52.10813522 42.2917691 52.10297394 41.11328125 52.09765625 C39.94113571 52.0962413 38.76899017 52.09482635 37.56132507 52.09336853 C33.81169093 52.08776388 30.06211615 52.07521056 26.3125 52.0625 C23.77278732 52.0574856 21.2330737 52.05292259 18.69335938 52.04882812 C12.46219822 52.03864316 6.23116569 52.01906851 0 52 C0 34.84 0 17.68 0 0 Z " fill="#050505" transform="translate(662,494)"/>
<path d="M0 0 C0.92218323 -0.00807175 1.84436646 -0.01614349 2.79449463 -0.02445984 C4.75832223 -0.03833113 6.72217424 -0.04903957 8.68603516 -0.05688477 C11.64925438 -0.07390925 14.61130193 -0.11774246 17.57421875 -0.16210938 C29.86817583 -0.26258883 43.12252559 -0.36349324 52.953125 8.23828125 C59.16153179 15.65435073 59.83346401 22.89030196 59.22265625 32.31201172 C58.38992258 38.26334201 54.22718977 42.43841752 49.765625 46.11328125 C41.9492608 50.94196271 33.00469097 51.68098165 24.03515625 51.53125 C23.05189865 51.52700516 22.06864105 51.52276031 21.05558777 51.51838684 C17.95863796 51.50178373 14.86237338 51.4641677 11.765625 51.42578125 C9.64779595 51.41071062 7.52995656 51.39702642 5.41210938 51.38476562 C0.25885626 51.35194072 -4.89389378 51.30028874 -10.046875 51.23828125 C-10.07214287 44.13583126 -10.08970701 37.03339277 -10.10180664 29.9309082 C-10.10684849 27.51260953 -10.11368178 25.09431392 -10.12231445 22.67602539 C-10.13438657 19.20848842 -10.14010463 15.74099159 -10.14453125 12.2734375 C-10.14969254 11.18490982 -10.15485382 10.09638214 -10.16017151 8.97486877 C-10.16024704 7.97390671 -10.16032257 6.97294464 -10.16040039 5.94165039 C-10.162621 5.05562637 -10.16484161 4.16960236 -10.16712952 3.25672913 C-9.8687977 -1.75071037 -3.83072999 0.03163024 0 0 Z " fill="#020202" transform="translate(672.046875,409.76171875)"/>
<path d="M0 0 C7.86318034 5.18901626 12.94219456 12.10004595 16 21 C16 22.65 16 24.3 16 26 C-5.45 26 -26.9 26 -49 26 C-47.73184055 15.8547244 -44.29474657 8.92668937 -36.25390625 2.47265625 C-25.52769621 -4.53563003 -11.65354255 -5.32343379 0 0 Z " fill="#070606" transform="translate(1412,469)"/>
<path d="M0 0 C0.76166977 0.00222061 1.52333954 0.00444122 2.30809021 0.00672913 C3.16890701 0.00680466 4.02972382 0.00688019 4.91662598 0.00695801 C5.8520372 0.01211929 6.78744843 0.01728058 7.75120544 0.02259827 C8.70422043 0.02401321 9.65723541 0.02542816 10.63912964 0.02688599 C13.69605085 0.032503 16.75289996 0.04505836 19.80979919 0.05775452 C21.87685543 0.06276733 23.94391281 0.06733061 26.01097107 0.07142639 C31.08977507 0.08247795 36.16852489 0.09975397 41.24729919 0.12025452 C41.74229919 1.11025452 41.74229919 1.11025452 42.24729919 2.12025452 C39.49834327 2.89547122 37.0661485 3.24304299 34.21311951 3.23377991 C33.42179626 3.23365906 32.63047302 3.23353821 31.81517029 3.2334137 C30.58274597 3.22573975 30.58274597 3.22573975 29.32542419 3.21791077 C28.56278259 3.21690369 27.80014099 3.21589661 27.01438904 3.21485901 C24.17534372 3.20964121 21.33631989 3.19567995 18.49729919 3.18275452 C12.14479919 3.16212952 5.79229919 3.14150452 -0.75270081 3.12025452 C-0.75270081 17.97025452 -0.75270081 32.82025452 -0.75270081 48.12025452 C13.43729919 48.12025452 27.62729919 48.12025452 42.24729919 48.12025452 C42.24729919 49.11025452 42.24729919 50.10025452 42.24729919 51.12025452 C27.39729919 51.12025452 12.54729919 51.12025452 -2.75270081 51.12025452 C-2.77560388 44.01775695 -2.79553278 36.91538649 -2.80763245 29.81288147 C-2.8126743 27.39458279 -2.81950759 24.97628718 -2.82814026 22.55799866 C-2.84021237 19.09046168 -2.84593044 15.62296485 -2.85035706 12.15541077 C-2.85551834 11.06688309 -2.86067963 9.97835541 -2.86599731 8.85684204 C-2.86607285 7.85587997 -2.86614838 6.85491791 -2.8662262 5.82362366 C-2.86844681 4.93759964 -2.87066742 4.05157562 -2.87295532 3.13870239 C-2.72077174 0.58433153 -2.56349838 0.17588413 0 0 Z " fill="#3D3D3D" transform="translate(664.7527008056641,409.87974548339844)"/>
<path d="M0 0 C30.03 0 60.06 0 91 0 C91 0.33 91 0.66 91 1 C104.365 1.495 104.365 1.495 118 2 C118 2.33 118 2.66 118 3 C78.4 3 38.8 3 -2 3 C-1.34 2.67 -0.68 2.34 0 2 C0 1.34 0 0.68 0 0 Z " fill="#00060B" transform="translate(288,572)"/>
<path d="M0 0 C0.66 0.33 1.32 0.66 2 1 C-3.94 6.94 -9.88 12.88 -16 19 C-16.99 18.67 -17.98 18.34 -19 18 C-17.0843735 15.91570199 -15.16753939 13.83253697 -13.25 11.75 C-12.71117187 11.16347656 -12.17234375 10.57695313 -11.6171875 9.97265625 C-10.08445699 8.30908289 -8.54423332 6.65289385 -7 5 C-5.90945313 3.83210938 -5.90945313 3.83210938 -4.796875 2.640625 C-3 1 -3 1 0 0 Z " fill="#02C463" transform="translate(270,507)"/>
<path d="M0 0 C0.88365234 0.00902344 1.76730469 0.01804687 2.67773438 0.02734375 C4.84777359 0.05080363 7.01767247 0.08667135 9.1875 0.125 C9.1875 0.455 9.1875 0.785 9.1875 1.125 C3.5775 1.125 -2.0325 1.125 -7.8125 1.125 C-8.1425 2.115 -8.4725 3.105 -8.8125 4.125 C-10.51953125 5.00390625 -10.51953125 5.00390625 -12.625 5.6875 C-15.48542583 6.66646927 -18.14144751 7.69407902 -20.8125 9.125 C-22.14583333 9.79166667 -23.47916667 10.45833333 -24.8125 11.125 C-21.75739822 7.197012 -19.33397515 4.38573757 -14.8125 2.125 C-13.80123047 1.59519531 -13.80123047 1.59519531 -12.76953125 1.0546875 C-8.50241163 -0.2868904 -4.44221623 -0.08612798 0 0 Z " fill="#2F2F2F" transform="translate(1176.8125,473.875)"/>
<path d="M0 0 C-0.125 2.25 -0.125 2.25 -1 5 C-3.875 7.375 -3.875 7.375 -7 9 C-7.99 8.67 -8.98 8.34 -10 8 C-3.56521739 0 -3.56521739 0 0 0 Z " fill="#0D88F3" transform="translate(501,479)"/>
<path d="M0 0 C0.33 0 0.66 0 1 0 C1.10871967 2.54283234 1.18762401 5.08095088 1.25 7.625 C1.28351563 8.33785156 1.31703125 9.05070313 1.3515625 9.78515625 C1.44985717 15.14221553 0.35249165 17.81598483 -3 22 C-4.40155793 19.19688414 -3.53314256 17.8993778 -2.625 14.9375 C-1.17498744 9.91873508 -0.4262444 5.20018164 0 0 Z " fill="#0C86E5" transform="translate(456,515)"/>
<path d="M0 0 C0.33 0 0.66 0 1 0 C0.50769231 7.38461538 0.50769231 7.38461538 -2.0625 10.5 C-2.701875 10.995 -3.34125 11.49 -4 12 C-4.99 11.67 -5.98 11.34 -7 11 C-5.85845641 9.16399255 -4.71165684 7.33125195 -3.5625 5.5 C-2.92441406 4.4790625 -2.28632813 3.458125 -1.62890625 2.40625 C-0.82259766 1.21515625 -0.82259766 1.21515625 0 0 Z " fill="#0E7FE7" transform="translate(449,543)"/>
<path d="M0 0 C0.33 0.66 0.66 1.32 1 2 C-0.24090114 5.38110703 -2.18811115 7.35041366 -4.875 9.6875 C-5.55304688 10.28949219 -6.23109375 10.89148438 -6.9296875 11.51171875 C-9.01065834 13.00766194 -10.49630826 13.5789756 -13 14 C-12.34 13.360625 -11.68 12.72125 -11 12.0625 C-7.14346256 8.2170765 -3.59166578 4.09075581 0 0 Z " fill="#111112" transform="translate(1454,557)"/>
<path d="M0 0 C2 1 2 1 3 3 C-0.3 4.32 -3.6 5.64 -7 7 C-7 6.01 -7 5.02 -7 4 C-1.7265625 0.77734375 -1.7265625 0.77734375 0 0 Z " fill="#111111" transform="translate(727,537)"/>
<path d="M0 0 C0.33 1.32 0.66 2.64 1 4 C-0.65 5.32 -2.3 6.64 -4 8 C-4.66 7.34 -5.32 6.68 -6 6 C-4.02 4.02 -2.04 2.04 0 0 Z " fill="#1387EA" transform="translate(256,605)"/>
<path d="M0 0 C0.66 1.32 1.32 2.64 2 4 C-0.31 6.31 -2.62 8.62 -5 11 C-5.99 10.67 -6.98 10.34 -8 10 C-7.236875 9.278125 -6.47375 8.55625 -5.6875 7.8125 C-3.28866409 5.30209033 -1.64589779 3.03191698 0 0 Z " fill="#E3E3E4" transform="translate(729,445)"/>
<path d="M0 0 C0 3 0 3 -1 6 C-3.0625 6.6875 -3.0625 6.6875 -5 7 C-5 7.99 -5 8.98 -5 10 C-5.66 10 -6.32 10 -7 10 C-6.42424336 6.64749299 -5.40693737 5.06181371 -2.9375 2.75 C-2.38964844 2.22921875 -1.84179688 1.7084375 -1.27734375 1.171875 C-0.64505859 0.59179688 -0.64505859 0.59179688 0 0 Z " fill="#1286DE" transform="translate(249,612)"/>
<path d="M0 0 C0.99 0.33 1.98 0.66 3 1 C1.6875 3.5 1.6875 3.5 0 6 C-0.99 6 -1.98 6 -3 6 C-2.42655063 3.13275314 -2.1385485 2.1385485 0 0 Z " fill="#0D86EF" transform="translate(265,596)"/>
<path d="M0 0 C2.64 1.32 5.28 2.64 8 4 C7.34 4.66 6.68 5.32 6 6 C3.36 4.68 0.72 3.36 -2 2 C-1.34 1.34 -0.68 0.68 0 0 Z " fill="#F3F3F2" transform="translate(751,478)"/>
<path d="M0 0 C-0.99 0 -1.98 0 -3 0 C-3.33 0.99 -3.66 1.98 -4 3 C-5.98 3.33 -7.96 3.66 -10 4 C-4.75 -1.425 -4.75 -1.425 0 0 Z " fill="#2D2C2C" transform="translate(1386,469)"/>
<path d="M0 0 C0.66 0.99 1.32 1.98 2 3 C-3.625 7 -3.625 7 -7 7 C-4.69 4.69 -2.38 2.38 0 0 Z " fill="#02B058" transform="translate(309,466)"/>
<path d="M0 0 C-2.68841859 2.25245881 -4.64641875 3.88213958 -8 5 C-7.625 3.0625 -7.625 3.0625 -7 1 C-4.53721199 -0.231394 -2.7204945 -0.07159196 0 0 Z " fill="#1889EC" transform="translate(450,608)"/>
<path d="M0 0 C-0.33 1.32 -0.66 2.64 -1 4 C-1.66 4 -2.32 4 -3 4 C-3.66 4.66 -4.32 5.32 -5 6 C-5.66 5.34 -6.32 4.68 -7 4 C-2.25 0 -2.25 0 0 0 Z " fill="#097ADF" transform="translate(501,479)"/>
<path d="M0 0 C5.625 -0.25 5.625 -0.25 9 2 C8.67 2.99 8.34 3.98 8 5 C5.36 3.68 2.72 2.36 0 1 C0 0.67 0 0.34 0 0 Z " fill="#1E1E1E" transform="translate(739,381)"/>
<path d="M0 0 C0.598125 0.20625 1.19625 0.4125 1.8125 0.625 C0.8225 0.625 -0.1675 0.625 -1.1875 0.625 C-1.8475 1.945 -2.5075 3.265 -3.1875 4.625 C-4.1775 4.625 -5.1675 4.625 -6.1875 4.625 C-5.03076352 1.15479057 -3.91311293 -0.67081936 0 0 Z " fill="#1C90F4" transform="translate(483.1875,494.375)"/>
</svg>
